<svg xmlns="http://www.w3.org/2000/svg" width="16" height="17" viewBox="0 0 16 17" fill="none">
<path d="M10.6326 8.5C10.6326 9.76219 9.61268 10.7821 8.3505 10.7821C7.08831 10.7821 6.06836 9.76219 6.06836 8.5C6.06836 7.23781 7.08831 6.21786 8.3505 6.21786C9.61268 6.21786 10.6326 7.23781 10.6326 8.5Z" stroke="#999999" stroke-linecap="round" stroke-linejoin="round"/>
<path d="M8.35042 13.7718C10.6007 13.7718 12.698 12.4459 14.1578 10.151C14.7315 9.25219 14.7315 7.74139 14.1578 6.84256C12.698 4.54767 10.6007 3.22174 8.35042 3.22174C6.10016 3.22174 4.00289 4.54767 2.54308 6.84256C1.96936 7.74139 1.96936 9.25219 2.54308 10.151C4.00289 12.4459 6.10016 13.7718 8.35042 13.7718Z" stroke="#999999" stroke-linecap="round" stroke-linejoin="round"/>
</svg>