<svg xmlns="http://www.w3.org/2000/svg" width="21" height="21" viewBox="0 0 21 21" fill="none">
<path d="M6.72298 1.90271H13.723C16.3896 1.90271 18.5563 4.06938 18.5563 6.73604V13.736C18.5563 15.0179 18.0471 16.2473 17.1407 17.1537C16.2342 18.0602 15.0049 18.5694 13.723 18.5694H6.72298C4.05632 18.5694 1.88965 16.4027 1.88965 13.736V6.73604C1.88965 5.45416 2.39887 4.22479 3.3053 3.31836C4.21172 2.41193 5.4411 1.90271 6.72298 1.90271ZM6.55632 3.56938C5.76067 3.56938 4.9976 3.88545 4.43499 4.44806C3.87239 5.01067 3.55632 5.77373 3.55632 6.56938V13.9027C3.55632 15.561 4.89798 16.9027 6.55632 16.9027H13.8896C14.6853 16.9027 15.4484 16.5866 16.011 16.024C16.5736 15.4614 16.8896 14.6984 16.8896 13.9027V6.56938C16.8896 4.91104 15.548 3.56938 13.8896 3.56938H6.55632ZM14.598 4.81938C14.8742 4.81938 15.1392 4.92912 15.3346 5.12447C15.5299 5.31982 15.6396 5.58478 15.6396 5.86104C15.6396 6.13731 15.5299 6.40226 15.3346 6.59761C15.1392 6.79296 14.8742 6.90271 14.598 6.90271C14.3217 6.90271 14.0568 6.79296 13.8614 6.59761C13.6661 6.40226 13.5563 6.13731 13.5563 5.86104C13.5563 5.58478 13.6661 5.31982 13.8614 5.12447C14.0568 4.92912 14.3217 4.81938 14.598 4.81938ZM10.223 6.06938C11.3281 6.06938 12.3879 6.50836 13.1693 7.28977C13.9507 8.07117 14.3896 9.13097 14.3896 10.236C14.3896 11.3411 13.9507 12.4009 13.1693 13.1823C12.3879 13.9637 11.3281 14.4027 10.223 14.4027C9.11791 14.4027 8.05811 13.9637 7.2767 13.1823C6.4953 12.4009 6.05632 11.3411 6.05632 10.236C6.05632 9.13097 6.4953 8.07117 7.2767 7.28977C8.05811 6.50836 9.11791 6.06938 10.223 6.06938ZM10.223 7.73604C9.55994 7.73604 8.92406 7.99944 8.45521 8.46828C7.98637 8.93712 7.72298 9.573 7.72298 10.236C7.72298 10.8991 7.98637 11.535 8.45521 12.0038C8.92406 12.4727 9.55994 12.736 10.223 12.736C10.886 12.736 11.5219 12.4727 11.9907 12.0038C12.4596 11.535 12.723 10.8991 12.723 10.236C12.723 9.573 12.4596 8.93712 11.9907 8.46828C11.5219 7.99944 10.886 7.73604 10.223 7.73604Z" fill="#27282B"/>
</svg>