<svg xmlns="http://www.w3.org/2000/svg" width="20" height="21" viewBox="0 0 20 21" fill="none">
<path d="M15.8333 2.73596C16.2754 2.73596 16.6993 2.91156 17.0118 3.22412C17.3244 3.53668 17.5 3.9606 17.5 4.40263V16.0693C17.5 16.5113 17.3244 16.9352 17.0118 17.2478C16.6993 17.5604 16.2754 17.736 15.8333 17.736H4.16667C3.72464 17.736 3.30072 17.5604 2.98816 17.2478C2.67559 16.9352 2.5 16.5113 2.5 16.0693V4.40263C2.5 3.9606 2.67559 3.53668 2.98816 3.22412C3.30072 2.91156 3.72464 2.73596 4.16667 2.73596H15.8333ZM15.4167 15.6526V11.236C15.4167 10.5155 15.1304 9.82446 14.621 9.31499C14.1115 8.80551 13.4205 8.51929 12.7 8.51929C11.9917 8.51929 11.1667 8.95263 10.7667 9.60263V8.67763H8.44167V15.6526H10.7667V11.5443C10.7667 10.9026 11.2833 10.3776 11.925 10.3776C12.2344 10.3776 12.5312 10.5005 12.75 10.7193C12.9687 10.9381 13.0917 11.2349 13.0917 11.5443V15.6526H15.4167ZM5.73333 7.3693C6.10464 7.3693 6.46073 7.2218 6.72328 6.95924C6.98583 6.69669 7.13333 6.3406 7.13333 5.9693C7.13333 5.1943 6.50833 4.56096 5.73333 4.56096C5.35982 4.56096 5.0016 4.70934 4.73749 4.97345C4.47338 5.23757 4.325 5.59578 4.325 5.9693C4.325 6.7443 4.95833 7.3693 5.73333 7.3693ZM6.89167 15.6526V8.67763H4.58333V15.6526H6.89167Z" fill="#27282B"/>
</svg>