<svg width="75" height="35" viewBox="0 0 75 35" fill="none" xmlns="http://www.w3.org/2000/svg">
<g opacity="0.41">
<path d="M70.8976 9.24249C71.473 12.3957 71.338 15.6642 70.5071 18.7493C70.3155 19.4551 70.0807 20.1711 69.5946 20.7237C69.1123 21.2714 68.4288 21.6013 67.7421 21.8793C64.6989 23.0998 61.3597 23.4211 58.0761 23.7264C55.7255 23.9439 53.3712 24.1663 51.0206 24.3838C49.7136 24.5077 48.2623 24.5895 47.2233 23.7967C46.782 23.462 46.4645 22.9977 46.1658 22.5395C44.8815 20.5529 43.843 18.4162 43.0772 16.1912C42.7524 15.2478 42.4827 14.1925 42.8951 13.2874C43.1623 12.7024 43.6833 12.2674 44.2462 11.9359C45.0849 11.446 46.0336 11.1598 46.9767 10.8962C53.1115 9.18612 59.4762 8.25745 65.8693 8.13662C67.5733 8.10452 69.6574 8.04859 70.857 9.23911" fill="url(#paint0_linear_1428_3337)" fill-opacity="0.66"/>
<path d="M70.7219 9.26609C71.0787 11.5926 71.1248 13.96 70.7719 16.2839C70.6095 17.3742 70.4121 18.5302 69.9903 19.5542C69.4371 20.901 68.2489 21.4412 66.9243 21.9033C62.3986 23.4802 57.2907 23.5105 52.5459 23.9513C51.4497 24.0518 50.3135 24.2448 49.2081 24.159C47.7287 24.0481 46.9305 23.2238 46.1925 22.0468C44.9039 19.9999 43.6536 17.6338 43.1098 15.2795C42.3994 12.2097 45.8487 11.4812 48.1737 10.8744C50.55 10.2522 52.9569 9.74804 55.3856 9.3632C58.1408 8.92235 60.9228 8.63504 63.7184 8.50299C65.8582 8.40048 68.9448 7.90732 70.685 9.47165C70.9625 9.72311 71.3153 9.26659 71.0378 9.01513C69.5376 7.65919 67.3259 7.81915 65.4326 7.86744C62.3699 7.94298 59.3159 8.20061 56.2888 8.64233C53.3667 9.07024 50.4777 9.66395 47.6311 10.4266C45.7595 10.9302 42.8267 11.5602 42.4363 13.8104C42.269 14.7749 42.6125 15.755 42.9355 16.6549C43.4339 18.0553 44.0475 19.4188 44.7598 20.7256C45.8571 22.7454 46.8762 24.6576 49.4486 24.7382C52.0435 24.8201 54.7586 24.3191 57.3374 24.0759C60.145 23.8114 62.9795 23.5783 65.7028 22.8275C66.9935 22.4701 68.5306 22.0586 69.5339 21.1369C70.3915 20.3479 70.672 19.181 70.9238 18.092C71.6008 15.1758 71.6488 12.1677 71.0765 9.21946C71.0359 9.00228 70.6939 9.0429 70.7263 9.26551L70.7219 9.26609Z" fill="#232321"/>
</g>
<g opacity="0.41">
<path d="M6.14155 17.2897C6.48341 20.4189 7.52975 23.4769 9.18293 26.1848C9.56259 26.804 9.98589 27.4218 10.6011 27.8213C11.2113 28.2172 11.9508 28.3559 12.6785 28.4446C15.9007 28.8272 19.1502 28.2841 22.3425 27.7398C24.6275 27.3493 26.9175 26.9623 29.2025 26.5717C30.4737 26.3574 31.8698 26.0665 32.63 25.0529C32.9535 24.6243 33.1233 24.1044 33.2772 23.5952C33.9339 21.3899 34.3158 19.1048 34.415 16.8055C34.4572 15.8306 34.4158 14.7637 33.7712 14.012C33.354 13.5264 32.7388 13.247 32.1131 13.0762C31.1819 12.8255 30.2039 12.7954 29.2376 12.7853C22.9529 12.7239 16.6704 13.46 10.5879 14.9677C8.96682 15.3696 6.93508 15.7827 6.13483 17.2134" fill="url(#paint1_linear_1428_3337)" fill-opacity="0.66"/>
<path d="M5.97054 17.3122C6.22407 19.8952 6.93926 22.396 8.11307 24.7336C8.60077 25.7031 9.13699 26.7949 9.92964 27.5699C10.6762 28.2995 11.6338 28.551 12.6486 28.6835C15.4016 29.0377 18.1918 28.6837 20.9046 28.2497C23.7845 27.7895 26.6719 27.3197 29.5371 26.7885C30.4549 26.6164 31.4249 26.4116 32.1867 25.861C33.1471 25.1686 33.4444 24.0787 33.7386 22.9978C34.3628 20.6897 34.9594 17.982 34.6744 15.5747C34.4244 13.4674 32.6901 12.7304 30.7219 12.556C27.8969 12.3099 24.9513 12.53 22.1353 12.7674C18.7477 13.0542 15.3815 13.5784 12.0693 14.3228C10.0013 14.7877 7.11035 15.1121 5.89995 17.0384C5.70806 17.3467 6.17017 17.6891 6.36207 17.3808C7.4304 15.6834 9.94456 15.3914 11.7685 14.9671C14.1825 14.4094 16.6316 13.9715 19.0941 13.6563C21.4921 13.3495 23.9073 13.1606 26.3304 13.0864C27.5838 13.0502 28.8469 13.0214 30.1052 13.0789C31.2485 13.1302 32.739 13.2472 33.5409 14.1755C34.3058 15.0613 34.1572 16.4191 34.0836 17.4796C34.0008 18.6871 33.8381 19.888 33.6035 21.0769C33.3855 22.1692 33.1791 23.3716 32.6858 24.38C32.0749 25.6356 30.7453 25.9906 29.4556 26.2288C27.0766 26.666 24.6841 27.0407 22.3014 27.4527C20.0294 27.8416 17.7451 28.2363 15.4339 28.2958C14.1055 28.3289 12.5098 28.3629 11.2493 27.8682C9.92358 27.3477 9.23076 25.8733 8.62634 24.7047C7.42242 22.3711 6.66851 19.8453 6.31417 17.2627C6.28229 17.0439 5.94726 17.0922 5.96993 17.308L5.97054 17.3122Z" fill="#232321"/>
<path d="M6.13942 17.3117C6.47759 20.4354 7.52065 23.4872 9.17124 26.1889C9.55031 26.8067 9.97304 27.4229 10.588 27.8211C11.198 28.2156 11.9376 28.3532 12.6656 28.441C15.8887 28.8193 19.1404 28.2733 22.3348 27.7262C24.6213 27.3337 26.9127 26.9447 29.1992 26.5522C30.4713 26.3367 31.8684 26.0447 32.6301 25.0319C32.9543 24.6036 33.1248 24.0843 33.2794 23.5758C33.9391 21.3733 34.324 19.0915 34.4261 16.7958C34.4694 15.8224 34.4293 14.7573 33.7854 14.0076C33.3686 13.5233 32.7534 13.245 32.1277 13.0752C31.1964 12.826 30.218 12.7971 29.2513 12.788C22.9639 12.734 16.6776 13.4762 10.5906 14.9884C8.96829 15.3915 6.93514 15.8062 6.13278 17.2355" fill="url(#paint2_linear_1428_3337)" fill-opacity="0.66"/>
</g>
<path fill-rule="evenodd" clip-rule="evenodd" d="M5.57949 19.7552C5.53457 19.7434 5.49103 19.7189 5.45301 19.6784C4.98391 19.1842 4.3101 19.0876 3.72254 19.4451C3.61178 19.5099 3.42979 19.5261 3.3475 19.3999C2.75898 18.4892 2.09554 17.4139 2.33829 16.2917C2.76253 14.3373 5.41351 13.9539 7.3232 13.6778L7.32324 13.6778C7.64853 13.6307 7.95231 13.5868 8.21991 13.5388C11.5169 12.9461 14.8308 12.4427 18.1633 12.099C21.4489 11.7574 24.7542 11.5837 28.0615 11.6343C28.9656 11.6478 29.8686 11.6921 30.7702 11.7362C33.312 11.8607 35.8429 11.9847 38.3596 11.4194C40.2368 10.9994 42.0778 10.4229 43.9191 9.8463L43.9192 9.84629C45.3166 9.40872 46.7141 8.97109 48.1278 8.60175C51.355 7.76066 54.6236 7.05957 57.9174 6.5048C61.2448 5.94552 64.6027 5.56929 67.9621 5.23442C68.0487 5.22583 68.1378 5.21676 68.2284 5.20755C70.2413 5.00268 73.1616 4.70546 73.8617 7.08258C74.1372 8.02283 73.7092 8.68749 73.0107 9.28868L72.9542 9.33723C72.557 9.67814 72.2423 9.94827 72.1132 10.478C72.0177 10.8723 72.0302 11.2844 72.0426 11.692C72.0456 11.791 72.0486 11.8897 72.05 11.9878C72.0517 12.1537 72.0538 12.3195 72.0559 12.4853L72.056 12.4878L72.056 12.4886C72.0625 12.9982 72.069 13.5071 72.0608 14.0157C72.0259 16.5946 71.6457 19.3363 69.9038 21.3959C68.0883 23.5403 65.2847 23.8961 62.6141 24.1925L52.4001 25.3276C52.0628 25.3658 51.7175 25.4152 51.3678 25.4652L51.3676 25.4652C50.2789 25.621 49.1486 25.7826 48.0892 25.6322C46.978 25.4738 46.1164 24.8119 45.4706 23.9505C44.7589 22.9996 44.3213 21.8901 43.8849 20.7835C43.2791 19.2474 42.6755 17.7169 41.3438 16.6243C40.1695 15.6634 38.5602 15.3182 37.2555 16.2669C36.1762 17.0524 35.665 18.456 35.3863 19.6869C35.2379 20.3482 35.1546 21.033 35.0711 21.7194L35.0711 21.7195C34.8834 23.2628 34.6947 24.8139 33.763 26.1221C32.428 28.0021 29.8564 28.2506 27.599 28.4688L27.5988 28.4688C27.2012 28.5072 26.8132 28.5447 26.4436 28.59C23.0904 28.9989 19.7244 29.318 16.3546 29.5503C16.022 29.5729 15.6702 29.6068 15.307 29.6418C13.1392 29.8508 10.5648 30.099 9.24243 28.2143C8.64491 27.3643 8.25834 26.3444 7.88294 25.3539C7.75157 25.0073 7.62157 24.6643 7.48438 24.3335C7.11893 23.4582 6.75461 22.5814 6.39006 21.7042L6.3893 21.7023L6.38716 21.6972C6.11824 21.05 5.8492 20.4026 5.57949 19.7552ZM7.23763 17.3515C7.55346 20.3323 8.54554 23.2426 10.1213 25.8171C10.4831 26.4058 10.8869 26.993 11.4756 27.3715C12.0596 27.7465 12.7686 27.876 13.4666 27.9579C16.5568 28.3108 19.6769 27.7813 22.7422 27.2511C23.8374 27.0611 24.9337 26.872 26.0301 26.6829L26.0347 26.6821L26.0359 26.6819C27.134 26.4925 28.2321 26.3031 29.329 26.1129C30.5496 25.904 31.8903 25.6217 32.6237 24.653C32.9357 24.2434 33.1007 23.7474 33.2504 23.2615C33.8891 21.1575 34.2645 18.9786 34.3686 16.7871C34.4128 15.8579 34.3773 14.8413 33.7617 14.1274C33.3633 13.6661 32.7741 13.4021 32.1744 13.2417C31.2818 13.0061 30.3436 12.981 29.4164 12.9748C23.3863 12.9392 17.3552 13.6637 11.5131 15.1226C11.4145 15.1472 11.3143 15.1719 11.213 15.1968L11.2126 15.1969C9.71334 15.5662 7.95587 15.9991 7.23147 17.2788L7.23763 17.3515ZM69.8271 19.0546C70.6219 16.1644 70.7616 13.1051 70.2315 10.1562L70.1932 10.1531C69.0824 9.05806 67.1555 9.10168 65.5619 9.13775L65.4975 9.13921C59.4727 9.27516 53.4716 10.1671 47.6841 11.7894C46.7944 12.0395 45.8994 12.3107 45.1072 12.7722C44.5755 13.0845 44.0828 13.4935 43.8288 14.0418C43.4367 14.8904 43.6869 15.8771 43.9893 16.7588C44.7025 18.8383 45.6729 20.8343 46.8754 22.6889C47.1552 23.1166 47.4526 23.5501 47.8672 23.8617C48.8432 24.5999 50.2111 24.5182 51.4431 24.3976C52.5511 24.2916 53.66 24.1844 54.7689 24.0773C55.8776 23.9702 56.9863 23.8631 58.0942 23.7571C61.1895 23.4596 64.3374 23.147 67.2097 21.9938C67.8578 21.7312 68.5032 21.4201 68.9598 20.9057C69.4199 20.3868 69.6439 19.7159 69.8271 19.0546Z" fill="#232321"/>
<path d="M4.64891 14.9618C4.60972 14.9162 4.55968 14.8882 4.51054 14.8685C4.51054 14.8685 4.50542 14.8607 4.50075 14.8571C4.3948 14.7479 4.19703 14.7353 4.1293 14.8956C4.11603 14.9301 4.10276 14.9646 4.08994 15.0033C3.80479 15.3601 3.90129 15.9259 4.14828 16.269C4.21398 16.3616 4.36246 16.3917 4.46257 16.3316C4.55678 16.3343 4.65537 16.2992 4.72835 16.2254C4.88607 16.0681 4.85855 15.8183 4.84533 15.6208C4.82608 15.4074 4.81273 15.1313 4.65735 14.961L4.64891 14.9618Z" fill="#4D4D4D"/>
<path d="M72.3426 8.07214C72.3426 8.07214 72.3258 8.03628 72.3156 8.02063C72.2775 7.90761 72.2234 7.8046 72.145 7.71248C72.0473 7.60146 71.888 7.58875 71.7845 7.69557C71.484 7.79775 71.4759 8.26649 71.7102 8.45524C71.7805 8.58997 71.8913 8.70381 72.035 8.76827C72.1474 8.81928 72.3042 8.7696 72.351 8.65195C72.4238 8.46058 72.4268 8.25556 72.3421 8.068L72.3426 8.07214Z" fill="#4D4D4D"/>
<defs>
<linearGradient id="paint0_linear_1428_3337" x1="43.2811" y1="21.8393" x2="63.1388" y2="13.3971" gradientUnits="userSpaceOnUse">
<stop stop-color="white"/>
<stop offset="1" stop-color="#D3A47E"/>
</linearGradient>
<linearGradient id="paint1_linear_1428_3337" x1="19.8" y1="13.2853" x2="21.7233" y2="27.9097" gradientUnits="userSpaceOnUse">
<stop stop-color="white"/>
<stop offset="1" stop-color="#D3A47E"/>
</linearGradient>
<linearGradient id="paint2_linear_1428_3337" x1="19.8197" y1="13.293" x2="21.7969" y2="27.8765" gradientUnits="userSpaceOnUse">
<stop stop-color="white"/>
<stop offset="1" stop-color="#D3A47E"/>
</linearGradient>
</defs>
</svg>
