<svg xmlns="http://www.w3.org/2000/svg" width="28" height="37" viewBox="0 0 28 37" fill="none">
<path d="M8.99839 12.9486C8.16727 11.2923 7.26592 9.65539 6.67283 7.89366C6.37433 7.00792 6.14021 6.08902 6.07583 5.1545C6.0173 4.29803 6.07193 3.37326 6.5109 2.61629C6.88939 1.96076 7.51565 1.45741 8.27262 1.33255C9.8256 1.07697 11.1113 2.35486 11.679 3.67567C12.0321 4.49312 12.1804 5.38862 12.2702 6.27046C12.3638 7.17766 12.3892 8.09071 12.4497 9.00182C12.5101 9.91292 12.5921 10.7635 12.8242 11.6142C13.0798 12.5584 13.5441 13.5807 14.6152 13.768C15.7175 13.9592 16.6833 13.0676 17.1105 12.1292C17.4851 11.304 17.5924 10.3753 17.6685 9.48176C17.7387 8.6643 17.7563 7.83318 17.9143 7.02548C18.207 5.52324 18.7806 4.02294 19.8731 2.9499C20.6945 2.14415 21.9411 1.78518 23.0142 2.29633C23.976 2.75481 24.4754 3.77712 24.5476 4.80333C24.6315 5.98171 24.1828 7.13864 23.6541 8.16875C23.4395 8.58821 23.2034 8.99791 22.9595 9.40177C22.105 10.826 21.2329 12.4219 21.2193 14.129C21.2017 16.6204 23.617 17.7129 24.9398 19.4395C25.049 19.5839 25.1524 19.7322 25.2441 19.8863C25.7923 20.8052 26.0733 21.8568 26.1123 22.9239C26.1435 23.796 26.0187 24.6681 25.7943 25.509C24.772 29.3231 22.2708 32.3686 18.6635 33.9918C17.0286 34.7273 15.2747 35.0024 13.4856 35.139C9.17202 35.4667 4.73747 33.3714 2.77479 29.4129C2.39825 28.652 2.11731 27.8423 1.95343 27.0093C1.66664 25.5519 1.73492 23.8741 2.81381 22.7406C3.32496 22.204 4.03707 21.8646 4.77649 21.7787C5.9061 21.648 6.90499 22.247 7.67368 23.0254C8.18483 23.5444 8.59063 24.1433 8.98863 24.7501C9.83925 26.0455 10.725 28.1213 9.40224 29.446C8.3214 30.5269 6.65137 30.1425 5.50225 29.4207C4.81746 28.9895 4.21266 28.4159 3.68394 27.8053C3.15523 27.1946 2.72992 26.5196 2.50751 25.7529C2.17779 24.6193 2.38069 23.279 3.23912 22.4713C3.81661 21.9289 4.64382 21.6753 5.43201 21.7592C6.49919 21.8724 7.28153 22.5923 7.98778 23.3454C8.8267 24.2408 10.3699 26.9761 10.5318 27.2727C10.7952 27.7545 11.4683 27.6648 11.9424 27.3917C12.4165 27.1185 12.7306 26.6249 12.9179 26.1099C13.4368 24.674 13.0837 23.0664 12.5218 21.648C11.9756 20.2667 11.2283 18.9557 10.2451 17.8436C9.63245 17.151 8.87548 16.5092 7.96047 16.3706C7.30689 16.2711 6.61625 16.4506 6.09144 16.8545C5.56663 17.2583 5.22131 17.8826 5.15302 18.5401C5.07694 19.2834 5.34617 20.0287 5.75782 20.653C6.26117 21.4158 6.9245 22.0323 7.5254 22.7074C7.92535 23.1581 8.26287 23.6282 8.60234 24.1199C9.31444 25.1481 9.91534 26.2464 10.5572 27.3195C11.5972 28.7079 12.5761 29.8499 13.8602 31.4302C13.1605 30.5742 12.9276 29.0851 13.0213 27.9828C13.1754 26.1704 13.829 24.7793 15.1556 23.3902C16.6462 21.8314 19.3502 21.2188 20.8505 20.8501C20.1813 21.0335 18.4801 21.2578 17.6607 21.328C16.2384 21.449 14.6269 21.4022 13.2886 20.8579C12.2955 20.454 11.2947 19.5858 11.0215 18.5128C10.7621 17.4866 11.2693 16.4467 12.1882 15.9531C12.7423 15.6566 13.3861 15.6468 13.9987 15.7054C14.6113 15.7639 15.2591 15.9102 15.8892 16.0156C16.8745 16.1794 17.9338 16.2048 18.8898 15.8692" stroke="#101010" stroke-width="1.92388" stroke-miterlimit="10" stroke-linecap="square"/>
<path d="M7.64258 5.35255L10.3165 4.62329" stroke="#101010" stroke-width="1.92388" stroke-miterlimit="10"/>
</svg>